<svg xmlns="http://www.w3.org/2000/svg" viewBox="0 0 86.91 87.57"><defs><style>.cls-1,.cls-2{fill:none;stroke-miterlimit:10;}.cls-1{stroke:#fff;stroke-width:9px;}.cls-2{stroke:#1688ca;stroke-width:5px;}.cls-3{fill:#1c232a;}</style></defs><g id="Layer_2" data-name="Layer 2"><g id="New_Layer" data-name="New Layer"><path class="cls-1" d="M73.64,85.77,42.88,15.25,12.11,85.77"/><line class="cls-2" x1="13.63" y1="82.52" x2="22.6" y2="65.55"/><circle class="cls-3" cx="13.31" cy="83.13" r="4.12"/><line class="cls-2" x1="4.73" y1="58.05" x2="21.7" y2="67.02"/><circle class="cls-3" cx="4.13" cy="57.73" r="4.12"/><line class="cls-2" x1="38.87" y1="71.04" x2="21.9" y2="67.13"/><circle class="cls-3" cx="39.48" cy="71.36" r="4.12"/><line class="cls-2" x1="44.65" y1="22.59" x2="23.13" y2="62.36"/><line class="cls-2" x1="43.86" y1="22.56" x2="63.31" y2="63.38"/><circle class="cls-3" cx="21.7" cy="67.02" r="8.25"/><line class="cls-2" x1="73.28" y1="82.52" x2="64.31" y2="65.55"/><circle class="cls-3" cx="73.6" cy="83.13" r="4.12"/><line class="cls-2" x1="82.18" y1="58.05" x2="65.21" y2="67.02"/><circle class="cls-3" cx="82.79" cy="57.73" r="4.12"/><line class="cls-2" x1="48.04" y1="71.04" x2="65.01" y2="67.13"/><circle class="cls-3" cx="47.44" cy="71.36" r="4.12"/><circle class="cls-3" cx="65.27" cy="67.38" r="8.25"/><line class="cls-2" x1="44.6" y1="4.81" x2="44.6" y2="24"/><circle class="cls-3" cx="44.6" cy="4.12" r="4.12"/><line class="cls-2" x1="63.91" y1="22.29" x2="44.72" y2="22.29"/><circle class="cls-3" cx="64.6" cy="22.29" r="4.12"/><line class="cls-2" x1="25.3" y1="22.29" x2="44.49" y2="22.29"/><circle class="cls-3" cx="24.61" cy="22.29" r="4.12"/><circle class="cls-3" cx="44.6" cy="21.94" r="8.25"/></g></g></svg>