<svg xmlns="http://www.w3.org/2000/svg" viewBox="0 0 390.31 113.06"><defs><style>.cls-1{fill:#1c232a;}.cls-2{fill:#1688ca;}.cls-3,.cls-4{fill:none;stroke-miterlimit:10;}.cls-3{stroke:#fff;stroke-width:9px;}.cls-4{stroke:#1688ca;stroke-width:5px;}</style></defs><g id="Layer_2" data-name="Layer 2"><g id="New_Layer" data-name="New Layer"><path class="cls-1" d="M6.48,103H2.59v4H0V93.28l6.48,0A4.86,4.86,0,1,1,6.48,103ZM2.59,100.6H6.48a2.44,2.44,0,1,0,0-4.87H2.59Z"/><path class="cls-1" d="M20.36,97.34h2.29V107H20.4l-.12-1.41a3.69,3.69,0,0,1-3.14,1.7c-2.87,0-5-1.74-5-5.14a4.71,4.71,0,0,1,5-5.06,3.54,3.54,0,0,1,3.08,1.57Zm-5.81,4.83a2.77,2.77,0,0,0,2.86,3c3.77,0,3.77-5.87,0-5.87A2.75,2.75,0,0,0,14.55,102.17Z"/><path class="cls-1" d="M31.8,107V102a2.31,2.31,0,0,0-2.33-2.59A2.55,2.55,0,0,0,27,102.07v5H24.62v-9.7h2.14l.15,1.32a4.41,4.41,0,0,1,3.18-1.46c2.28,0,4.11,1.71,4.11,4.76V107Z"/><path class="cls-1" d="M43.86,96.36l1.76,1.34-1.08,1.37a4.11,4.11,0,0,1,1,2.87,3.85,3.85,0,0,1-2,3.61,3.26,3.26,0,0,1,2,3.2c0,2.67-2.05,4.31-4.85,4.31s-4.91-1.7-4.91-4.31h2.37a2.29,2.29,0,0,0,2.54,2.08,2.17,2.17,0,0,0,2.45-2.08c0-1.34-1.26-2-2.45-2a4.52,4.52,0,0,1-4.91-4.86A4.72,4.72,0,0,1,40.68,97a3.84,3.84,0,0,1,2.21.55Zm-5.72,5.58a2.53,2.53,0,1,0,5,0,2.53,2.53,0,1,0-5,0Z"/><path class="cls-1" d="M49.14,103c.16,1.2,1.2,2.07,2.88,2.07a4,4,0,0,0,2.59-.91l1.54,1.51A6,6,0,0,1,52,107.27c-3.33,0-5.32-2.06-5.32-5.16a4.85,4.85,0,0,1,5.15-5.06c3.24,0,5.26,2,4.89,6Zm5.26-2a2.22,2.22,0,0,0-2.51-1.88,2.61,2.61,0,0,0-2.71,1.88Z"/><path class="cls-1" d="M65.67,107V102a2.31,2.31,0,0,0-2.34-2.59,2.55,2.55,0,0,0-2.47,2.71v5H58.48v-9.7h2.14l.16,1.32A4.37,4.37,0,0,1,64,97.18c2.28,0,4.1,1.71,4.1,4.76V107Z"/><path class="cls-1" d="M79.74,102.19a5,5,0,1,1-5.06-5A4.88,4.88,0,0,1,79.74,102.19Zm-7.67,0a2.64,2.64,0,1,0,5.26,0,2.74,2.74,0,0,0-2.63-2.87A2.66,2.66,0,0,0,72.07,102.19Z"/><path class="cls-1" d="M87.83,107v-5.18c0-1.28-.67-2.44-2-2.44a2.21,2.21,0,0,0-2.06,2.44V107h-2.4v-9.7h2.22l.18,1.18a2.8,2.8,0,0,1,2.55-1.33A2.91,2.91,0,0,1,89.21,99a3.5,3.5,0,0,1,3.23-1.77c2.75,0,4.11,1.69,4.11,4.6V107h-2.4V101.8c0-1.28-.53-2.36-1.82-2.36a2.2,2.2,0,0,0-2.1,2.4V107Z"/><path class="cls-1" d="M101,103c.16,1.2,1.2,2.07,2.89,2.07a4,4,0,0,0,2.59-.91L108,105.7a5.94,5.94,0,0,1-4.16,1.57c-3.34,0-5.32-2.06-5.32-5.16a4.84,4.84,0,0,1,5.14-5.06c3.24,0,5.26,2,4.89,6Zm5.27-2c-.16-1.25-1.14-1.88-2.52-1.88a2.62,2.62,0,0,0-2.71,1.88Z"/><path class="cls-1" d="M126.54,97.07l-4.47,6h-.51l-4.38-6v10h-2.59V93.3h3l4.3,5.91,4.3-5.91h3V107h-2.6Z"/><path class="cls-1" d="M133.85,97.34v5.07a2.31,2.31,0,0,0,2.33,2.59,2.55,2.55,0,0,0,2.48-2.71v-5H141V107h-2.14l-.15-1.32a4.35,4.35,0,0,1-3.28,1.46c-2.32,0-4-1.75-4-4.75V97.34Z"/><path class="cls-1" d="M146.53,94.61v2.75h2.67v2.06h-2.69v4.18a1.2,1.2,0,0,0,1.26,1.38,2.74,2.74,0,0,0,1.16-.3l.66,2a5.21,5.21,0,0,1-2,.42c-2.1.08-3.47-1.12-3.47-3.54V99.42h-1.81V97.36h1.81V94.87Z"/><path class="cls-1" d="M158.66,97.34H161V107H158.7l-.12-1.41a3.69,3.69,0,0,1-3.14,1.7c-2.86,0-5-1.74-5-5.14a4.71,4.71,0,0,1,5-5.06,3.53,3.53,0,0,1,3.08,1.57Zm-5.81,4.83a2.78,2.78,0,0,0,2.87,3c3.77,0,3.77-5.87,0-5.87A2.76,2.76,0,0,0,152.85,102.17Z"/><path class="cls-1" d="M166,94.61v2.75h2.67v2.06h-2.69v4.18c0,.93.51,1.38,1.25,1.38a2.67,2.67,0,0,0,1.16-.3l.67,2a5.29,5.29,0,0,1-2,.42c-2.1.08-3.48-1.12-3.48-3.54V99.42h-1.8V97.36h1.8V94.87Z"/><path class="cls-1" d="M173,94.61a1.41,1.41,0,0,1-2.82,0A1.41,1.41,0,0,1,173,94.61ZM170.4,97.3V107h2.4V97.3Z"/><path class="cls-1" d="M184.79,102.19a5,5,0,1,1-5.06-5A4.88,4.88,0,0,1,184.79,102.19Zm-7.67,0a2.64,2.64,0,1,0,5.26,0,2.74,2.74,0,0,0-2.63-2.87A2.66,2.66,0,0,0,177.12,102.19Z"/><path class="cls-1" d="M193.57,107V102a2.31,2.31,0,0,0-2.34-2.59,2.55,2.55,0,0,0-2.47,2.71v5h-2.38v-9.7h2.14l.16,1.32a4.37,4.37,0,0,1,3.18-1.46c2.28,0,4.1,1.71,4.1,4.76V107Z"/><path class="cls-1" d="M197.93,99.52h7.24v2.2h-7.24Z"/><path class="cls-1" d="M217,104.43h-7.19L208.58,107h-2.8l6.16-13.74h2.83L220.93,107h-2.82Zm-3.59-8.27L210.8,102h5.11Z"/><path class="cls-1" d="M228.84,107V102a2.31,2.31,0,0,0-2.33-2.59,2.55,2.55,0,0,0-2.48,2.71v5h-2.37v-9.7h2.14l.16,1.32a4.37,4.37,0,0,1,3.18-1.46c2.27,0,4.1,1.71,4.1,4.76V107Z"/><path class="cls-1" d="M240.43,107V102a2.31,2.31,0,0,0-2.34-2.59,2.55,2.55,0,0,0-2.47,2.71v5h-2.38v-9.7h2.14l.16,1.32a4.37,4.37,0,0,1,3.18-1.46c2.28,0,4.1,1.71,4.1,4.76V107Z"/><path class="cls-1" d="M254.5,102.19a5,5,0,1,1-5.06-5A4.88,4.88,0,0,1,254.5,102.19Zm-7.67,0a2.64,2.64,0,1,0,5.26,0,2.74,2.74,0,0,0-2.63-2.87A2.66,2.66,0,0,0,246.83,102.19Z"/><path class="cls-1" d="M259.33,94.61v2.75H262v2.06h-2.69v4.18a1.2,1.2,0,0,0,1.26,1.38,2.74,2.74,0,0,0,1.16-.3l.66,2a5.21,5.21,0,0,1-2,.42c-2.1.08-3.47-1.12-3.47-3.54V99.42h-1.81V97.36h1.81V94.87Z"/><path class="cls-1" d="M271.46,97.34h2.3V107H271.5l-.11-1.41a3.7,3.7,0,0,1-3.14,1.7c-2.87,0-5-1.74-5-5.14a4.71,4.71,0,0,1,5-5.06,3.54,3.54,0,0,1,3.09,1.57Zm-5.81,4.83a2.78,2.78,0,0,0,2.87,3c3.77,0,3.77-5.87,0-5.87A2.76,2.76,0,0,0,265.65,102.17Z"/><path class="cls-1" d="M278.75,94.61v2.75h2.67v2.06h-2.69v4.18c0,.93.51,1.38,1.25,1.38a2.67,2.67,0,0,0,1.16-.3l.67,2a5.29,5.29,0,0,1-2,.42c-2.1.08-3.48-1.12-3.48-3.54V99.42h-1.8V97.36h1.8V94.87Z"/><path class="cls-1" d="M285.25,103c.15,1.2,1.19,2.07,2.88,2.07a4,4,0,0,0,2.59-.91l1.53,1.51a5.93,5.93,0,0,1-4.16,1.57c-3.33,0-5.32-2.06-5.32-5.16a4.85,4.85,0,0,1,5.15-5.06c3.23,0,5.26,2,4.88,6Zm5.26-2c-.16-1.25-1.14-1.88-2.52-1.88a2.6,2.6,0,0,0-2.7,1.88Z"/><path class="cls-1" d="M304.7,93.3V107h-2.24l-.15-1.34a3.54,3.54,0,0,1-3.13,1.56,4.75,4.75,0,0,1-5-5.07c0-3.34,2.1-5.06,4.93-5.06a4,4,0,0,1,3.18,1.55V93.3Zm-8.11,8.87a2.78,2.78,0,1,0,5.56,0,2.77,2.77,0,0,0-2.81-2.83A2.67,2.67,0,0,0,296.59,102.17Z"/><path class="cls-1" d="M320,93.26h2.6V107h-1.61v0l-7.23-9.29V107h-2.59V93.28h2.1L320,101.8Z"/><path class="cls-1" d="M326.79,103c.15,1.2,1.19,2.07,2.88,2.07a4,4,0,0,0,2.59-.91l1.53,1.51a5.93,5.93,0,0,1-4.16,1.57c-3.33,0-5.32-2.06-5.32-5.16a4.85,4.85,0,0,1,5.15-5.06c3.23,0,5.26,2,4.88,6Zm5.26-2c-.16-1.25-1.14-1.88-2.52-1.88a2.6,2.6,0,0,0-2.7,1.88Z"/><path class="cls-1" d="M339.15,94.61v2.75h2.67v2.06h-2.69v4.18a1.21,1.21,0,0,0,1.26,1.38,2.7,2.7,0,0,0,1.16-.3l.67,2a5.3,5.3,0,0,1-2,.42c-2.1.08-3.47-1.12-3.47-3.54V99.42H335V97.36h1.81V94.87Z"/><path class="cls-1" d="M352.5,97.32l2.12,7.28,2.22-7.28h2.65l-3.37,9.74h-2.79l-1-2.87-.87-3.24-.86,3.24-1,2.87h-2.79l-3.4-9.74h2.67l2.22,7.28,2.1-7.28Z"/><path class="cls-1" d="M371.13,102.19a5,5,0,1,1-5.06-5A4.88,4.88,0,0,1,371.13,102.19Zm-7.67,0a2.64,2.64,0,1,0,5.26,0,2.74,2.74,0,0,0-2.63-2.87A2.66,2.66,0,0,0,363.46,102.19Z"/><path class="cls-1" d="M375,97.34l.18,1.12a2.83,2.83,0,0,1,2.73-1.37,3.66,3.66,0,0,1,2.49.92l-1.08,2.08a2.4,2.4,0,0,0-1.73-.63,2.24,2.24,0,0,0-2.41,2.46V107h-2.4V97.34Z"/><path class="cls-1" d="M383.64,93.3v7.93l3.26-3.89h2.86v.14l-3.94,4.42,4.49,4.94V107h-2.88l-3.79-4.38V107h-2.4V93.3Z"/><path class="cls-2" d="M29.12,66.1H11.65V84.28H0V22.5c9.71,0,19.42-.09,29.12-.09C59.31,22.41,59.39,66.1,29.12,66.1ZM11.65,55.42H29.12c14.92,0,14.83-21.89,0-21.89H11.65Z"/><path class="cls-2" d="M169.74,22.41h11.65V84.28h-7.24v.09L141.67,42.62V84.28H130V22.5h9.45l30.27,38.3Z"/><path class="cls-2" d="M245.9,39.53,225.78,66.36h-2.3L203.8,39.45V84.37H192.15V22.59h13.42L224.9,49.15l19.32-26.56h13.33V84.37H245.9Z"/><path class="cls-2" d="M376.17,22.41h11.65V84.28h-7.24v.09L348.1,42.62V84.28H336.45V22.5h9.45l30.27,38.3Z"/><path class="cls-1" d="M120,60.45a77.5,77.5,0,0,0-18.59-24.68L100,34.54c.22-.23.32-.37.46-.49,6.12-5.35,11.31-11.48,17.34-23h-3.49c-2.84,6.22-4,7.85-5.17,9.42A84.56,84.56,0,0,1,92.07,37,76.92,76.92,0,0,0,74.42,55.15c-.22.31-.46.62-.62.84l-5-2.44c.12-.21.29-.55.5-.86A83.18,83.18,0,0,1,89.1,32.22,78.22,78.22,0,0,0,107,13.92c.18-.27.37-.53.56-.78.07-.08,1.37-1.86,1.35-1.87h-3.71c-1.26,1.74-2.49,3.49-3.68,5.18-.51,0-.83.08-1.15.08L85,16.55c-1.29,0-2.58.12-3.86.08a1.88,1.88,0,0,1-1.31-.53c-1.17-1.59-2.3-3.21-3.43-4.83H72.74A73.11,73.11,0,0,0,86.2,27.15l2.12,1.92-4.47,3.45a4,4,0,0,1-.44-.32A80.62,80.62,0,0,1,73.14,21.57c-.64-.8-1.25-1.62-6.77-10.09H62.7l4.93,7.68A81.33,81.33,0,0,0,79.9,33l1.59,1.45c-.56.52-1,.92-1.39,1.3s-.92.8-1.36,1.22A81.65,81.65,0,0,0,65.49,53.11,4.7,4.7,0,0,1,64,54.7a8.34,8.34,0,0,0-4.36,8.62,5.41,5.41,0,0,1-.17,2.08c-.88,3.23-2,6.42-2.69,9.69a72.69,72.69,0,0,0-1,8.72,1.49,1.49,0,0,0,1.54,1.7,1.53,1.53,0,0,0,1.43-1.68A51,51,0,0,1,61.35,69a7.66,7.66,0,0,1,.42-.95l4.93,2.38a31.83,31.83,0,0,0-.92,3.43c-.53,3.27-1,6.55-1.4,9.84a1.49,1.49,0,0,0,1.51,1.82c.86,0,1.41-.68,1.46-1.76s.06-2.23.21-3.32c.28-2,.66-3.91,1-5.88h44.2a14.82,14.82,0,0,1,.48,1.78c.31,2.52.6,5,.86,7.55.1,1,.64,1.63,1.48,1.66a1.55,1.55,0,0,0,1.54-1.6,6.19,6.19,0,0,0,0-1.61,97.64,97.64,0,0,0-1.88-10.1C111.69,59.93,104.41,50,95,41.59c-.57-.52-1.15-1-1.82-1.62l4.43-3.45a2.75,2.75,0,0,1,.41.26,75.08,75.08,0,0,1,19.26,25c.59,1.27,1.39,1.73,2.27,1.31S120.61,61.75,120,60.45ZM82.82,19.61H98.39l.2.26-7.72,7.34A61.46,61.46,0,0,1,82.82,19.61ZM67.73,67.17A5.19,5.19,0,0,1,67.8,56.8a5.19,5.19,0,0,1-.07,10.37ZM112,71.33H69.64l.47-1.45a8.69,8.69,0,0,0,5.72-6.29h32.9Zm-5-10.94H75.94a1.75,1.75,0,0,1,0-2.22c1.37-1.87,2.69-3.77,4-5.62h21.59ZM98.59,49.13l-.2.3H83.08l-.2-.29,7.84-7.43Z"/><path class="cls-2" d="M125.72,83a7.85,7.85,0,0,1,0,1,1.51,1.51,0,0,1-1.5,1.52c-.83,0-1.43-.62-1.52-1.59-.27-2.77-.49-5.55-.88-8.3-.22-1.58-.71-3.13-1.09-4.69-.09-.38-.25-.75-.32-1.13-.21-1,.15-1.77.95-2A1.53,1.53,0,0,1,123.29,69a47.7,47.7,0,0,1,2.23,11.22c.07.93.15,1.85.22,2.78Z"/><path class="cls-2" d="M53.15,63.47c-.74,0-1.49,0-2.24,0a1.48,1.48,0,0,1-1.47-1.52,1.43,1.43,0,0,1,1.45-1.42c1.5-.05,3-.06,4.49,0A1.35,1.35,0,0,1,56.81,62a1.41,1.41,0,0,1-1.52,1.45c-.71,0-1.42,0-2.14,0Z"/><path class="cls-2" d="M60.6,53.41c-.28.35-.53.93-.93,1.07a1.87,1.87,0,0,1-1.56-.16,41.66,41.66,0,0,1-3.29-3.22,1.39,1.39,0,0,1,0-2A1.28,1.28,0,0,1,56.69,49c1.23,1.09,2.36,2.29,3.5,3.46A3.75,3.75,0,0,1,60.6,53.41Z"/><path class="cls-3" d="M328.62,85.77,297.86,15.25,267.09,85.77"/><line class="cls-4" x1="268.61" y1="82.52" x2="277.58" y2="65.55"/><circle class="cls-1" cx="268.29" cy="83.13" r="4.12"/><line class="cls-4" x1="259.71" y1="58.05" x2="276.68" y2="67.02"/><circle class="cls-1" cx="259.1" cy="57.73" r="4.12"/><line class="cls-4" x1="293.85" y1="71.04" x2="276.88" y2="67.13"/><circle class="cls-1" cx="294.45" cy="71.36" r="4.12"/><line class="cls-4" x1="299.63" y1="22.59" x2="278.11" y2="62.36"/><line class="cls-4" x1="298.84" y1="22.56" x2="318.29" y2="63.38"/><circle class="cls-1" cx="276.68" cy="67.02" r="8.25"/><line class="cls-4" x1="328.26" y1="82.52" x2="319.29" y2="65.55"/><circle class="cls-1" cx="328.58" cy="83.13" r="4.12"/><line class="cls-4" x1="337.16" y1="58.05" x2="320.19" y2="67.02"/><circle class="cls-1" cx="337.77" cy="57.73" r="4.12"/><line class="cls-4" x1="303.02" y1="71.04" x2="319.99" y2="67.13"/><circle class="cls-1" cx="302.41" cy="71.36" r="4.12"/><circle class="cls-1" cx="320.25" cy="67.38" r="8.25"/><ellipse class="cls-2" cx="67.75" cy="61.99" rx="5.17" ry="5.19"/><line class="cls-4" x1="299.58" y1="4.81" x2="299.58" y2="24"/><circle class="cls-1" cx="299.58" cy="4.12" r="4.12"/><line class="cls-4" x1="318.89" y1="22.29" x2="299.7" y2="22.29"/><circle class="cls-1" cx="319.57" cy="22.29" r="4.12"/><line class="cls-4" x1="280.27" y1="22.29" x2="299.47" y2="22.29"/><circle class="cls-1" cx="279.59" cy="22.29" r="4.12"/><circle class="cls-1" cx="299.58" cy="21.94" r="8.25"/></g></g></svg>