<?xml version="1.0" encoding="UTF-8" standalone="no"?>
<!-- Created with Inkscape (http://www.inkscape.org/) -->

<svg
   version="1.1"
   id="svg17697"
   width="1056"
   height="816"
   viewBox="0 0 1056 816"
   sodipodi:docname="protobuf-table.svg"
   inkscape:version="1.2.2 (732a01da63, 2022-12-09)"
   xmlns:inkscape="http://www.inkscape.org/namespaces/inkscape"
   xmlns:sodipodi="http://sodipodi.sourceforge.net/DTD/sodipodi-0.dtd"
   xmlns="http://www.w3.org/2000/svg"
   xmlns:svg="http://www.w3.org/2000/svg">
  <defs
     id="defs17701">
    <clipPath
       clipPathUnits="userSpaceOnUse"
       id="clipPath18040">
      <g
         id="g18044">
        <path
           d="M -2,-2 H 613 V 358 H -2 Z"
           id="path18042" />
      </g>
    </clipPath>
    <clipPath
       clipPathUnits="userSpaceOnUse"
       id="clipPath18046">
      <g
         id="g18050">
        <path
           d="M -2,-2 H 613 V 358 H -2 Z"
           id="path18048" />
      </g>
    </clipPath>
    <clipPath
       clipPathUnits="userSpaceOnUse"
       id="clipPath18052">
      <g
         id="g18056">
        <path
           d="M -2,-2 H 613 V 358 H -2 Z"
           id="path18054" />
      </g>
    </clipPath>
  </defs>
  <sodipodi:namedview
     id="namedview17699"
     pagecolor="#ffffff"
     bordercolor="#000000"
     borderopacity="0.25"
     inkscape:showpageshadow="2"
     inkscape:pageopacity="0.0"
     inkscape:pagecheckerboard="0"
     inkscape:deskcolor="#d1d1d1"
     showgrid="false"
     inkscape:zoom="1.2230392"
     inkscape:cx="430.07615"
     inkscape:cy="408.40882"
     inkscape:window-width="2560"
     inkscape:window-height="1351"
     inkscape:window-x="1911"
     inkscape:window-y="-9"
     inkscape:window-maximized="1"
     inkscape:current-layer="g17709">
    <inkscape:page
       x="0"
       y="0"
       id="page17703"
       width="1056"
       height="816" />
  </sodipodi:namedview>
  <g
     id="g17705"
     inkscape:groupmode="layer"
     inkscape:label="Page 1"
     transform="matrix(1.3333333,0,0,-1.3333333,0,816)">
    <g
       id="g17709"
       transform="matrix(0.75,0,0,-0.75,166.875,558)">
      <path
         d="M 0,0 H 612 V 357 H 0 Z"
         style="fill:#ffffff;fill-opacity:1;fill-rule:nonzero;stroke:none"
         id="path17717"
         clip-path="url(#clipPath18052)" />
      <g
         id="g17719"
         clip-path="url(#clipPath18046)" />
      <path
         d="M -0.5,41 V 357 M 100.5,41 V 357 M -1,41.5 H 202 M 201.5,41 V 357 M 201,230.5 H 340 M 339.5,62 V 357 M 100,62.5 h 387 m -148,21 H 487 M 486.5,62 V 210 M 100,251.5 h 387 m -148,21 h 148 m -148,21 h 148 m -286,21 h 286 m -148,21 h 148 m -488,21 H 487 M 486.5,251 V 357 M 339,104.5 h 273 m -126,21 h 126 m -126,21 h 126 m -126,21 h 126 m -126,21 h 126 m -512,21 H 612 M 611.5,104 v 106"
         style="fill:none;stroke:#000000;stroke-width:1;stroke-linecap:butt;stroke-linejoin:miter;stroke-miterlimit:10;stroke-dasharray:none;stroke-opacity:1"
         id="path17723"
         clip-path="url(#clipPath18040)" />
      <text
         xml:space="preserve"
         style="font-variant:normal;font-weight:normal;font-size:13px;font-family:Arial;-inkscape-font-specification:ArialMT;writing-mode:lr-tb;fill:#000000;fill-opacity:1;fill-rule:nonzero;stroke:none"
         id="text17727"
         x="25"
         y="203.19385"><tspan
           x="25 33.658001 40.886002 48.113998 58.943001 67.600998"
           y="203.19385"
           sodipodi:role="line"
           id="tspan17725">PanMAT</tspan></text>
      <text
         xml:space="preserve"
         style="font-variant:normal;font-weight:normal;font-size:13px;font-family:Arial;-inkscape-font-specification:ArialMT;writing-mode:lr-tb;fill:#000000;fill-opacity:1;fill-rule:nonzero;stroke:none"
         id="text17731"
         x="130"
         y="56.193848"><tspan
           x="130 139.386 146.614 156 158.886 165.386"
           y="56.193848"
           sodipodi:role="line"
           id="tspan17729">Newick</tspan></text>
      <text
         xml:space="preserve"
         style="font-variant:normal;font-weight:normal;font-size:13px;font-family:Arial;-inkscape-font-specification:ArialMT;writing-mode:lr-tb;fill:#000000;fill-opacity:1;fill-rule:nonzero;stroke:none"
         id="text17735"
         x="124"
         y="140.19385"><tspan
           x="124 127.601 131.202 140.588 147.81599 155.04401 162.272 168.772 172.373"
           y="140.19385"
           sodipodi:role="line"
           id="tspan17733">[ Nodes ]</tspan></text>
      <text
         xml:space="preserve"
         style="font-variant:normal;font-weight:normal;font-size:13px;font-family:Arial;-inkscape-font-specification:ArialMT;writing-mode:lr-tb;fill:#000000;fill-opacity:1;fill-rule:nonzero;stroke:none"
         id="text17739"
         x="217"
         y="140.19385"><tspan
           x="217 220.601 224.202 232.86 235.746 242.974 249.474 255.974 259.57501 270.40399 277.63199 281.233 288.461 292.06201 294.948 302.17599 309.40399 315.90399 319.505"
           y="140.19385"
           sodipodi:role="line"
           id="tspan17737">[ Block Mutations ]</tspan></text>
      <text
         xml:space="preserve"
         style="font-variant:normal;font-weight:normal;font-size:13px;font-family:Arial;-inkscape-font-specification:ArialMT;writing-mode:lr-tb;fill:#000000;fill-opacity:1;fill-rule:nonzero;stroke:none"
         id="text17743"
         x="388"
         y="77.193848"><tspan
           x="388 396.65799 399.54401 406.772 413.272 419.772 424.10101 427.702"
           y="77.193848"
           sodipodi:role="line"
           id="tspan17741">Block-ID</tspan></text>
      <text
         xml:space="preserve"
         style="font-variant:normal;font-weight:normal;font-size:13px;font-family:Arial;-inkscape-font-specification:ArialMT;writing-mode:lr-tb;fill:#000000;fill-opacity:1;fill-rule:nonzero;stroke:none"
         id="text17747"
         x="372"
         y="98.193848"><tspan
           x="372 382.82901 390.05701 393.65799 400.88599 404.487 407.37299 414.60101 421.82901 425.19598 432.41101 438.91101 446.13901"
           y="98.193848"
           sodipodi:role="line"
           id="tspan17745">Mutation Type</tspan></text>
      <text
         xml:space="preserve"
         style="font-variant:normal;font-weight:normal;font-size:13px;font-family:Arial;-inkscape-font-specification:ArialMT;writing-mode:lr-tb;fill:#000000;fill-opacity:1;fill-rule:nonzero;stroke:none"
         id="text17751"
         x="345"
         y="161.19385"><tspan
           x="345 348.60101 352.202 361.58801 368.81601 375.31601 378.202 385.42999 392.65799 396.259 399.14499 406.37299 413.60101 417.202 428.03101 435.259 438.85999 446.08801 449.689 452.57501 459.80301 467.03101 473.53101 477.13202"
           y="161.19385"
           sodipodi:role="line"
           id="tspan17749">[ Nucleotide Mutations ]</tspan></text>
      <text
         xml:space="preserve"
         style="font-variant:normal;font-weight:normal;font-size:13px;font-family:Arial;-inkscape-font-specification:ArialMT;writing-mode:lr-tb;fill:#000000;fill-opacity:1;fill-rule:nonzero;stroke:none"
         id="text17755"
         x="524"
         y="119.19385"><tspan
           x="524 532.65802 539.88599 546.38599 549.27197 552.87299 555.75897 562.987 570.21503"
           y="119.19385"
           sodipodi:role="line"
           id="tspan17753">Position </tspan></text>
      <text
         xml:space="preserve"
         style="font-variant:normal;font-weight:normal;font-size:13px;font-family:Arial;-inkscape-font-specification:ArialMT;writing-mode:lr-tb;fill:#000000;fill-opacity:1;fill-rule:nonzero;stroke:none"
         id="text17759"
         x="511"
         y="140.19385"><tspan
           x="511 521.10101 528.32898 535.55701 539.15802 547.81598 555.04401 561.54401 564.42999 568.03101 570.91699 578.14502"
           y="140.19385"
           sodipodi:role="line"
           id="tspan17757">Gap Position</tspan></text>
      <text
         xml:space="preserve"
         style="font-variant:normal;font-weight:normal;font-size:13px;font-family:Arial;-inkscape-font-specification:ArialMT;writing-mode:lr-tb;fill:#000000;fill-opacity:1;fill-rule:nonzero;stroke:none"
         id="text17763"
         x="508"
         y="161.19385"><tspan
           x="508 518.82898 526.05701 529.65802 536.88599 540.487 543.37299 550.60101 557.82898 561.19598 568.41101 574.91101 582.13898"
           y="161.19385"
           sodipodi:role="line"
           id="tspan17761">Mutation Type</tspan></text>
      <text
         xml:space="preserve"
         style="font-variant:normal;font-weight:normal;font-size:13px;font-family:Arial;-inkscape-font-specification:ArialMT;writing-mode:lr-tb;fill:#000000;fill-opacity:1;fill-rule:nonzero;stroke:none"
         id="text17767"
         x="502"
         y="182.19385"><tspan
           x="502 512.82898 520.05701 523.65802 530.88599 534.487 537.37299 544.60101 551.82898 555.42999 562.65802 569.88599 577.11401 584.34198 587.94299"
           y="182.19385"
           sodipodi:role="line"
           id="tspan17765">Mutation Length</tspan></text>
      <text
         xml:space="preserve"
         style="font-variant:normal;font-weight:normal;font-size:13px;font-family:Arial;-inkscape-font-specification:ArialMT;writing-mode:lr-tb;fill:#000000;fill-opacity:1;fill-rule:nonzero;stroke:none"
         id="text17771"
         x="491"
         y="203.19385"><tspan
           x="491 501.82901 509.05701 512.65802 519.88599 523.487 530.71503 537.94299 541.54401 550.92999 558.15802 565.38599 569.71497 576.94299 583.44299 587.04401 594.27197 598.60101"
           y="203.19385"
           sodipodi:role="line"
           id="tspan17769">Mutated Characters</tspan></text>
      <text
         xml:space="preserve"
         style="font-variant:normal;font-weight:normal;font-size:13px;font-family:Arial;-inkscape-font-specification:ArialMT;writing-mode:lr-tb;fill:#000000;fill-opacity:1;fill-rule:nonzero;stroke:none"
         id="text17775"
         x="124"
         y="235.19385"><tspan
           x="124 127.601 131.202 139.86 142.746 149.974 156.474 162.974 169.474 173.075"
           y="235.19385"
           sodipodi:role="line"
           id="tspan17773">[ Blocks ]</tspan></text>
      <text
         xml:space="preserve"
         style="font-variant:normal;font-weight:normal;font-size:13px;font-family:Arial;-inkscape-font-specification:ArialMT;writing-mode:lr-tb;fill:#000000;fill-opacity:1;fill-rule:nonzero;stroke:none"
         id="text17779"
         x="235"
         y="224.19385"><tspan
           x="235 238.601 242.202 250.86 253.746 260.974 267.474 273.974 278.30301 281.90399 291.29001 297.79001 301.39099"
           y="224.19385"
           sodipodi:role="line"
           id="tspan17777">[ Block-IDs ]</tspan></text>
      <text
         xml:space="preserve"
         style="font-variant:normal;font-weight:normal;font-size:13px;font-family:Arial;-inkscape-font-specification:ArialMT;writing-mode:lr-tb;fill:#000000;fill-opacity:1;fill-rule:nonzero;stroke:none"
         id="text17783"
         x="206"
         y="245.19385"><tspan
           x="206 215.386 222.614 229.842 236.342 243.57001 250.798 257.298 264.526 271.026 274.62701 283.285 290.513 297.741 304.96899 312.19699 319.42499 325.92499"
           y="245.19385"
           sodipodi:role="line"
           id="tspan17781">Consensus Sequence</tspan></text>
      <text
         xml:space="preserve"
         style="font-variant:normal;font-weight:normal;font-size:13px;font-family:Arial;-inkscape-font-specification:ArialMT;writing-mode:lr-tb;fill:#000000;fill-opacity:1;fill-rule:nonzero;stroke:none"
         id="text17787"
         x="128"
         y="308.19385"><tspan
           x="128 131.601 135.202 145.30299 152.53101 159.759 166.259 169.86"
           y="308.19385"
           sodipodi:role="line"
           id="tspan17785">[ Gaps ]</tspan></text>
      <text
         xml:space="preserve"
         style="font-variant:normal;font-weight:normal;font-size:13px;font-family:Arial;-inkscape-font-specification:ArialMT;writing-mode:lr-tb;fill:#000000;fill-opacity:1;fill-rule:nonzero;stroke:none"
         id="text17791"
         x="215"
         y="287.19385"><tspan
           x="215 218.601 222.202 231.588 238.81599 245.31599 248.202 255.42999 262.65799 266.259 269.14499 276.37299 283.60101 287.202 297.30301 304.53101 311.759 318.259 321.85999"
           y="287.19385"
           sodipodi:role="line"
           id="tspan17789">[ Nucleotide Gaps ]</tspan></text>
      <text
         xml:space="preserve"
         style="font-variant:normal;font-weight:normal;font-size:13px;font-family:Arial;-inkscape-font-specification:ArialMT;writing-mode:lr-tb;fill:#000000;fill-opacity:1;fill-rule:nonzero;stroke:none"
         id="text17795"
         x="388"
         y="266.19385"><tspan
           x="388 396.65799 399.54401 406.772 413.272 419.772 424.10101 427.702"
           y="266.19385"
           sodipodi:role="line"
           id="tspan17793">Block-ID</tspan></text>
      <text
         xml:space="preserve"
         style="font-variant:normal;font-weight:normal;font-size:13px;font-family:Arial;-inkscape-font-specification:ArialMT;writing-mode:lr-tb;fill:#000000;fill-opacity:1;fill-rule:nonzero;stroke:none"
         id="text17799"
         x="389"
         y="287.19385"><tspan
           x="389 397.65799 404.88599 411.38599 414.272 417.87299 420.759 427.987"
           y="287.19385"
           sodipodi:role="line"
           id="tspan17797">Position</tspan></text>
      <text
         xml:space="preserve"
         style="font-variant:normal;font-weight:normal;font-size:13px;font-family:Arial;-inkscape-font-specification:ArialMT;writing-mode:lr-tb;fill:#000000;fill-opacity:1;fill-rule:nonzero;stroke:none"
         id="text17803"
         x="393"
         y="308.19385"><tspan
           x="393 400.228 407.45599 414.68399 421.91199 425.513"
           y="308.19385"
           sodipodi:role="line"
           id="tspan17801">Length</tspan></text>
      <text
         xml:space="preserve"
         style="font-variant:normal;font-weight:normal;font-size:13px;font-family:Arial;-inkscape-font-specification:ArialMT;writing-mode:lr-tb;fill:#000000;fill-opacity:1;fill-rule:nonzero;stroke:none"
         id="text17807"
         x="230"
         y="340.19385"><tspan
           x="230 233.601 237.202 245.86 248.746 255.974 262.474 268.974 272.57501 282.67599 289.90399 297.13202 303.63202 307.233"
           y="340.19385"
           sodipodi:role="line"
           id="tspan17805">[ Block Gaps ]</tspan></text>
      <text
         xml:space="preserve"
         style="font-variant:normal;font-weight:normal;font-size:13px;font-family:Arial;-inkscape-font-specification:ArialMT;writing-mode:lr-tb;fill:#000000;fill-opacity:1;fill-rule:nonzero;stroke:none"
         id="text17811"
         x="389"
         y="329.19385"><tspan
           x="389 397.65799 404.88599 411.38599 414.272 417.87299 420.759 427.987"
           y="329.19385"
           sodipodi:role="line"
           id="tspan17809">Position</tspan></text>
      <text
         xml:space="preserve"
         style="font-variant:normal;font-weight:normal;font-size:13px;font-family:Arial;-inkscape-font-specification:ArialMT;writing-mode:lr-tb;fill:#000000;fill-opacity:1;fill-rule:nonzero;stroke:none"
         id="text17815"
         x="393"
         y="350.19385"><tspan
           x="393 400.228 407.45599 414.68399 421.91199 425.513"
           y="350.19385"
           sodipodi:role="line"
           id="tspan17813">Length</tspan></text>
    </g>
  </g>
</svg>
